<svg width="104" height="104" viewBox="0 0 104 104" fill="none" xmlns="http://www.w3.org/2000/svg">
<g clip-path="url(#clip0_142_728)">
<path d="M102.457 47.934L93.0483 42.592L94.2149 31.1348C94.3176 30.1246 93.9106 29.1297 93.1294 28.4815C92.3479 27.8332 91.2951 27.616 90.3214 27.9038L81.7312 30.4382L82.954 12.1759C83.0355 10.9594 82.3838 9.8113 81.2977 9.25778C80.2114 8.70427 78.8996 8.85133 77.9632 9.63194L64.611 20.7616L61.3423 16.9503C60.8043 16.3229 60.034 15.941 59.2087 15.8925C58.3818 15.8415 57.5738 16.1328 56.9656 16.6926L53.766 19.6391L43.9896 9.82227C43.3548 9.18507 42.4704 8.86149 41.5754 8.93624C40.6792 9.0116 39.8623 9.47899 39.3431 10.2131L30.8244 22.259L25.88 20.2621C25.028 19.9178 24.066 19.9767 23.2623 20.4221C22.4585 20.8674 21.8987 21.6519 21.7386 22.5568L20.3198 30.5816L2.92764 31.2633C1.78689 31.308 0.766798 31.9867 0.284986 33.0214C-0.196827 34.0561 -0.0599204 35.2738 0.639845 36.1757L10.1404 48.4189L2.95872 52.2047C2.10458 52.655 1.5145 53.4834 1.36805 54.4379C1.2216 55.3921 1.53603 56.3594 2.21569 57.0452L10.1636 65.0627L5.90525 80.7931C5.61011 81.8833 5.94242 83.0474 6.76833 83.8177C7.59424 84.5879 8.77866 84.8386 9.84567 84.4677L25.5915 79.0012L30.8429 93.0917C31.242 94.1628 32.2071 94.9205 33.3424 95.0537C33.4616 95.0677 33.5802 95.0746 33.6984 95.0746C34.7061 95.0746 35.6588 94.5743 36.2286 93.7247L41.5685 85.7601L45.5079 91.3952C46.227 92.4235 47.503 92.9061 48.7222 92.6107C49.9417 92.3154 50.8554 91.3028 51.0244 90.0593L51.9328 83.371L58.4527 87.0768C59.85 87.8712 61.6237 87.4432 62.5056 86.0996L65.6689 81.2796L80.3944 89.5267C81.3115 90.0404 82.4283 90.0449 83.3497 89.5393C84.2711 89.0335 84.8666 88.0884 84.9253 87.039L85.7681 72.0102L97.8778 70.396C98.9534 70.2528 99.8715 69.5481 100.288 68.5465C100.705 67.5447 100.558 66.3968 99.9013 65.533L94.0936 57.8875L102.435 53.2459C103.397 52.7105 103.995 51.6977 104 50.5966C104.005 49.4956 103.415 48.4776 102.457 47.934ZM88.0608 54.2709C87.2889 54.7003 86.7415 55.4435 86.5603 56.308C86.3789 57.1725 86.5818 58.073 87.116 58.7762L91.8803 65.0479L82.4645 66.3032C81.0148 66.4964 79.9069 67.6926 79.8249 69.1526L79.1141 81.8258L66.1686 74.5757C64.7727 73.7936 63.0102 74.2247 62.1325 75.562L58.9792 80.3668L51.0258 75.846C50.1463 75.3461 49.0758 75.3153 48.1691 75.7642C47.2623 76.2129 46.6373 77.0824 46.5012 78.0851L46.0356 81.5136L44.0137 78.6213C43.4377 77.7972 42.4895 77.3087 41.4869 77.3205C40.4816 77.3303 39.5456 77.8352 38.9858 78.6705L34.4776 85.3943L30.2618 74.0821C29.6489 72.6939 28.1541 71.6887 26.4075 72.2678L13.2937 76.8198L16.5043 64.9603C16.7881 63.9114 16.4921 62.7906 15.7272 62.0191L9.43983 55.6767L16.1952 52.1157C16.992 51.6957 17.562 50.9445 17.7525 50.064C17.9428 49.1836 17.7338 48.2641 17.1815 47.5523L9.08619 37.12L23.012 36.574C24.4441 36.518 25.6435 35.4713 25.8932 34.06L27.0849 27.3201L30.7789 28.812C32.0893 29.341 33.5916 28.9 34.4075 27.7462L42.2277 16.6883L51.5162 26.0152C52.6709 27.1744 54.5352 27.215 55.7391 26.1064L58.7722 23.3132L61.9417 27.0089C63.0262 28.2733 64.9257 28.4326 66.2053 27.3658L76.399 18.869L75.3596 34.3943C75.293 35.3888 75.7169 36.3528 76.4946 36.9758C77.2724 37.5988 78.3057 37.8025 79.2618 37.5202L87.6931 35.0327L86.7852 43.9519C86.6629 45.1536 87.2617 46.3139 88.312 46.9101L94.7355 50.557L88.0608 54.2709Z" fill="#1C50EA"/>
<path d="M33.6377 41.1585C29.2642 40.6883 25.3195 43.8577 24.8454 48.2316L23.4343 61.2525C23.2529 62.9254 24.4623 64.4287 26.1351 64.6099C27.8078 64.7907 29.3111 63.5819 29.4925 61.909L29.9695 57.5075L33.7183 57.9137L33.2414 62.3152C33.06 63.9882 34.2694 65.4915 35.9422 65.6727C37.3596 65.8567 39.1194 64.7168 39.2996 62.9717L40.7107 49.9508C41.1848 45.5771 38.012 41.6328 33.6377 41.1585ZM34.6525 49.2945L34.375 51.8553L30.6262 51.4491L30.9036 48.8883C31.0156 47.8546 31.9481 47.1036 32.9812 47.217C34.0147 47.3289 34.7644 48.261 34.6525 49.2945Z" fill="#1C50EA"/>
<path d="M74.8672 40.4062L64.2076 42.0535C62.5446 42.3107 61.4049 43.867 61.6619 45.53C61.8946 47.0354 63.1918 48.1119 64.6693 48.1119C64.6915 48.1597 67.028 47.7817 67.1712 47.7617L69.4596 62.5683C69.7212 64.0408 71.1894 65.4062 72.9361 65.1141C74.5991 64.857 75.7388 63.3004 75.4819 61.6376L73.1935 46.831L75.7981 46.4284C77.4611 46.1713 78.6008 44.6149 78.3439 42.952C78.0867 41.289 76.5306 40.1496 74.8672 40.4062Z" fill="#1C50EA"/>
<path d="M52.2962 41.0885H47.6105C45.9278 41.0885 44.5636 42.4527 44.5636 44.1354V62.1645C44.5636 63.8472 45.9278 65.2114 47.6105 65.2114C49.2932 65.2114 50.6573 63.8472 50.6573 62.1645V57.7372H51.3902C53.1196 57.7372 54.5267 59.1443 54.5267 60.8737V62.1643C54.5267 63.847 55.8909 65.2112 57.5736 65.2112C59.2562 65.2112 60.6204 63.847 60.6204 62.1643V60.8737C60.6204 58.6322 59.8167 56.5756 58.4833 54.9747C59.811 53.4994 60.6204 51.549 60.6204 49.4128C60.6204 44.8228 56.8862 41.0885 52.2962 41.0885ZM50.6573 47.1823H52.296C53.5261 47.1823 54.5267 48.1828 54.5267 49.4128C54.5267 50.6427 53.5261 51.6433 52.296 51.6433H50.6573V47.1823Z" fill="#1C50EA"/>
</g>
<defs>
<clipPath id="clip0_142_728">
<rect width="104" height="104" fill="white"/>
</clipPath>
</defs>
</svg>
