<svg width="105" height="104" viewBox="0 0 105 104" fill="none" xmlns="http://www.w3.org/2000/svg">
<path d="M92.905 88.7656C94.5877 88.7656 95.9519 87.4014 95.9519 85.7188V3.04688C95.9519 1.36419 94.5877 0 92.905 0H19.2121C13.3318 0 8.54803 4.784 8.54803 10.6641V93.3359C8.54803 99.216 13.3318 104 19.2121 104H92.9052C94.5879 104 95.9521 102.636 95.9521 100.953C95.9521 99.2704 94.5879 97.9062 92.9052 97.9062H90.1976V88.7656H92.905ZM14.6418 10.6641C14.6418 8.14409 16.6919 6.09375 19.2121 6.09375H20.7355V82.6719H19.2121C17.5773 82.6719 16.0279 83.0426 14.6418 83.7029V10.6641ZM84.1038 97.9062H19.2121C16.6919 97.9062 14.6418 95.8559 14.6418 93.3359C14.6418 90.816 16.6919 88.7656 19.2121 88.7656H84.1038V97.9062ZM89.8582 82.6719H26.8293V6.09375H89.8584L89.8582 82.6719Z" fill="#1C50EA"/>
<path d="M42.4031 43.4177V47.5944C42.4031 49.2771 43.7673 50.6413 45.45 50.6413C47.1326 50.6413 48.4968 49.2771 48.4968 47.5944V45.7943L55.2968 44.9292V49.2003C55.2968 50.883 56.661 52.2472 58.3437 52.2472C60.0264 52.2472 61.3906 50.883 61.3906 49.2003V44.1539L75.9289 42.3042C77.5023 42.1041 78.6589 40.7302 78.5882 39.1458L77.625 17.5865C77.5689 16.3292 76.7452 15.2356 75.5521 14.8344C74.3589 14.4336 73.042 14.8072 72.2377 15.7751L66.2191 23.0183L59.3563 14.3503C58.6772 13.4927 57.5911 13.0648 56.5093 13.2295C55.4279 13.394 54.5177 14.1255 54.1244 15.1464L50.3916 24.8342L42.9135 19.4965C41.8945 18.7691 40.5341 18.7391 39.484 19.4211C38.4338 20.103 37.9079 21.3579 38.158 22.5848L42.4031 43.4177ZM50.0511 32.0783C50.8179 32.6253 51.7948 32.7878 52.697 32.5166C53.5993 32.2459 54.3257 31.5729 54.6645 30.6936L57.8918 22.3175L63.7733 29.746C64.3434 30.4659 65.2077 30.8904 66.126 30.9014C66.138 30.9016 66.15 30.9016 66.1622 30.9016C67.0673 30.9016 67.9263 30.4992 68.5057 29.8019L71.8893 25.7298L72.3756 36.6136L47.8712 39.7314L45.675 28.9544L50.0511 32.0783Z" fill="#1C50EA"/>
<path d="M72.1449 69.1393H44.5426C42.8599 69.1393 41.4957 70.5035 41.4957 72.1862C41.4957 73.8688 42.8599 75.233 44.5426 75.233H72.1451C73.8277 75.233 75.1919 73.8688 75.1919 72.1862C75.1919 70.5035 73.8277 69.1393 72.1449 69.1393Z" fill="#1C50EA"/>
<path d="M72.1449 57.2772H44.5426C42.8599 57.2772 41.4957 58.6414 41.4957 60.3241C41.4957 62.0068 42.8599 63.371 44.5426 63.371H72.1451C73.8277 63.371 75.1919 62.0068 75.1919 60.3241C75.1919 58.6414 73.8277 57.2772 72.1449 57.2772Z" fill="#1C50EA"/>
<path d="M80.6873 52.481C82.37 52.481 83.7341 51.1168 83.7341 49.4341C83.7341 47.7513 82.37 46.3872 80.6873 46.3872C79.0045 46.3872 77.6404 47.7513 77.6404 49.4341C77.6404 51.1168 79.0045 52.481 80.6873 52.481Z" fill="#1C50EA"/>
</svg>
