<svg width="23" height="23" viewBox="0 0 23 23" fill="none" xmlns="http://www.w3.org/2000/svg">
<path d="M16.6176 5.23234C16.3901 5.23234 16.1678 5.29978 15.9787 5.42615C15.7896 5.55251 15.6422 5.73212 15.5551 5.94225C15.4681 6.15239 15.4453 6.38361 15.4897 6.60669C15.5341 6.82977 15.6436 7.03468 15.8044 7.19551C15.9652 7.35634 16.1701 7.46587 16.3932 7.51024C16.6163 7.55461 16.8475 7.53184 17.0577 7.4448C17.2678 7.35776 17.4474 7.21036 17.5738 7.02124C17.7001 6.83213 17.7676 6.60979 17.7676 6.38234C17.7676 6.07734 17.6464 5.78483 17.4308 5.56916C17.2151 5.3535 16.9226 5.23234 16.6176 5.23234ZM21.0259 7.5515C21.0073 6.75637 20.8584 5.96968 20.5851 5.22275C20.3414 4.58367 19.9622 4.00498 19.4734 3.5265C18.9989 3.03529 18.4188 2.65842 17.7772 2.42442C17.0322 2.14282 16.2446 1.9905 15.4484 1.974C14.4326 1.9165 14.1067 1.9165 11.5001 1.9165C8.89341 1.9165 8.56758 1.9165 7.55175 1.974C6.75552 1.9905 5.96795 2.14282 5.223 2.42442C4.58252 2.66079 4.00298 3.03733 3.52675 3.5265C3.03553 4.00105 2.65867 4.58109 2.42466 5.22275C2.14307 5.96771 1.99074 6.75527 1.97425 7.5515C1.91675 8.56734 1.91675 8.89317 1.91675 11.4998C1.91675 14.1065 1.91675 14.4323 1.97425 15.4482C1.99074 16.2444 2.14307 17.032 2.42466 17.7769C2.65867 18.4186 3.03553 18.9986 3.52675 19.4732C4.00298 19.9623 4.58252 20.3389 5.223 20.5753C5.96795 20.8568 6.75552 21.0092 7.55175 21.0257C8.56758 21.0832 8.89341 21.0832 11.5001 21.0832C14.1067 21.0832 14.4326 21.0832 15.4484 21.0257C16.2446 21.0092 17.0322 20.8568 17.7772 20.5753C18.4188 20.3412 18.9989 19.9644 19.4734 19.4732C19.9643 18.9965 20.3439 18.4173 20.5851 17.7769C20.8584 17.03 21.0073 16.2433 21.0259 15.4482C21.0259 14.4323 21.0834 14.1065 21.0834 11.4998C21.0834 8.89317 21.0834 8.56734 21.0259 7.5515ZM19.3009 15.3332C19.2939 15.9415 19.1838 16.5442 18.9751 17.1157C18.8221 17.5327 18.5763 17.9096 18.2563 18.2178C17.9455 18.5345 17.5694 18.7798 17.1542 18.9365C16.5828 19.1452 15.9801 19.2554 15.3717 19.2623C14.4134 19.3103 14.0588 19.3198 11.5384 19.3198C9.018 19.3198 8.66341 19.3198 7.70508 19.2623C7.07343 19.2742 6.44448 19.1769 5.84591 18.9748C5.44896 18.8101 5.09013 18.5654 4.79175 18.2561C4.47367 17.9482 4.23097 17.5711 4.08258 17.154C3.84861 16.5744 3.71884 15.9579 3.69925 15.3332C3.69925 14.3748 3.64175 14.0203 3.64175 11.4998C3.64175 8.97942 3.64175 8.62484 3.69925 7.6665C3.70354 7.0446 3.81708 6.42828 4.03466 5.84567C4.20338 5.44117 4.46234 5.08059 4.79175 4.7915C5.0829 4.462 5.44273 4.2003 5.84591 4.02484C6.43007 3.81405 7.04575 3.70387 7.66675 3.699C8.62508 3.699 8.97966 3.6415 11.5001 3.6415C14.0205 3.6415 14.3751 3.6415 15.3334 3.699C15.9417 3.70598 16.5445 3.81616 17.1159 4.02484C17.5514 4.18646 17.9423 4.44923 18.2563 4.7915C18.5704 5.08588 18.8158 5.44579 18.9751 5.84567C19.1881 6.42923 19.2983 7.04529 19.3009 7.6665C19.3488 8.62484 19.3584 8.97942 19.3584 11.4998C19.3584 14.0203 19.3488 14.3748 19.3009 15.3332ZM11.5001 6.58359C10.5281 6.58548 9.57859 6.87542 8.77138 7.41678C7.96416 7.95813 7.33553 8.72661 6.9649 9.6251C6.59427 10.5236 6.49828 11.5118 6.68905 12.4648C6.87983 13.4178 7.34881 14.2929 8.03674 14.9795C8.72467 15.6661 9.60067 16.1334 10.5541 16.3223C11.5075 16.5112 12.4955 16.4133 13.3932 16.0409C14.291 15.6686 15.0583 15.0384 15.598 14.2302C16.1378 13.4219 16.4259 12.4718 16.4259 11.4998C16.4272 10.8531 16.3006 10.2124 16.0534 9.61475C15.8061 9.01709 15.4432 8.4742 14.9854 8.0173C14.5276 7.56041 13.984 7.19853 13.3859 6.95248C12.7877 6.70643 12.1469 6.58106 11.5001 6.58359ZM11.5001 14.6911C10.8689 14.6911 10.2519 14.5039 9.72712 14.1533C9.20232 13.8026 8.79329 13.3042 8.55175 12.7211C8.31021 12.138 8.24701 11.4963 8.37015 10.8773C8.49329 10.2582 8.79722 9.68959 9.24353 9.24328C9.68983 8.79698 10.2585 8.49304 10.8775 8.36991C11.4965 8.24677 12.1382 8.30997 12.7213 8.55151C13.3044 8.79304 13.8028 9.20208 14.1535 9.72687C14.5042 10.2517 14.6913 10.8687 14.6913 11.4998C14.6913 11.9189 14.6088 12.3339 14.4484 12.7211C14.288 13.1083 14.053 13.4601 13.7566 13.7564C13.4603 14.0527 13.1085 14.2878 12.7213 14.4482C12.3341 14.6085 11.9192 14.6911 11.5001 14.6911Z" fill="#FCFCFC"/>
</svg>
