<svg width="104" height="104" viewBox="0 0 104 104" fill="none" xmlns="http://www.w3.org/2000/svg">
<path d="M54.6195 35.451C58.6406 35.451 61.9117 38.7222 61.9117 42.7432C61.9117 48.4677 66.5687 53.1245 72.293 53.1245C77.9045 53.1245 82.4903 48.6495 82.669 43.0806C88.1987 42.8588 92.6287 38.2911 92.6287 32.708C92.6287 27.1266 88.2016 22.5599 82.6743 22.3355V22.0649C82.6743 16.3404 78.0173 11.6836 72.293 11.6836C66.5687 11.6836 61.9117 16.3406 61.9117 22.0649C61.9117 26.086 58.6406 29.3573 54.6195 29.3573C52.9368 29.3573 51.5726 30.7215 51.5726 32.4042C51.5726 34.0869 52.9366 35.451 54.6195 35.451ZM68.0054 22.0649C68.0054 19.7005 69.9288 17.7773 72.293 17.7773C74.6572 17.7773 76.5806 19.7007 76.5806 22.0649V25.3736C76.5806 27.0563 77.9448 28.4205 79.6274 28.4205H82.2471C84.6115 28.4205 86.5347 30.3439 86.5347 32.708C86.5347 35.0722 84.6113 36.9954 82.2471 36.9954H79.6274C77.9448 36.9954 76.5806 38.3596 76.5806 40.0423V42.7432C76.5806 45.1076 74.6572 47.0308 72.293 47.0308C69.9288 47.0308 68.0054 45.1074 68.0054 42.7432C68.0054 38.5836 66.0983 34.8612 63.1126 32.4042C66.0983 29.9472 68.0054 26.2243 68.0054 22.0649Z" fill="#1C50EA"/>
<path d="M100.953 0H3.04688C1.36419 0 0 1.36419 0 3.04688V100.953C0 102.636 1.36419 104 3.04688 104H100.953C102.636 104 104 102.636 104 100.953V3.04688C104 1.36419 102.636 0 100.953 0ZM97.9062 84.823H85.6891V77.8334H97.9062V84.823ZM97.9062 6.09375V71.7397H82.6422C80.9595 71.7397 79.5953 73.1039 79.5953 74.7866V84.823H74.8134C73.1307 84.823 71.7665 86.1872 71.7665 87.8698V97.9062H42.429V45.2563H44.059C45.7417 45.2563 47.1059 43.8921 47.1059 42.2094C47.1059 40.5267 45.7417 39.1625 44.059 39.1625H42.429V38.7491C42.429 32.6418 37.6017 27.6364 31.5465 27.315V17.1724C31.5465 15.4897 30.1823 14.1255 28.4997 14.1255H13.9295C12.2468 14.1255 10.8826 15.4897 10.8826 17.1724V27.3124C9.15931 27.3971 7.53594 27.8659 6.09395 28.6327V6.09375H97.9062ZM6.09375 45.2563H12.3321V70.2855C12.3321 72.0056 10.9328 73.4047 9.21294 73.4047C7.49308 73.4047 6.09395 72.0054 6.09395 70.2855L6.09375 45.2563ZM6.09375 39.1625V38.7491C6.09375 35.7951 8.49692 33.3917 11.451 33.3917H30.9276C33.9095 33.3917 36.3352 35.7951 36.3352 38.7491V39.1625H6.09375ZM25.4528 27.298H16.9764V20.2193H25.4528V27.298ZM6.09375 78.9539C7.06834 79.3057 8.1185 79.4985 9.21273 79.4985C14.2929 79.4985 18.4257 75.3655 18.4257 70.2855V45.2563H36.335V97.9062H6.09375V78.9539ZM77.8603 97.9062V90.9167H97.9062V97.9062H77.8603Z" fill="#1C50EA"/>
</svg>
