<svg width="23" height="23" viewBox="0 0 23 23" fill="none" xmlns="http://www.w3.org/2000/svg">
<path d="M21.3369 2.3265C21.0641 2.0995 20.7348 1.95073 20.3841 1.89602C20.0334 1.84131 19.6744 1.8827 19.3454 2.0158L2.17118 8.94968C1.80389 9.10079 1.49125 9.36003 1.27475 9.69298C1.05825 10.0259 0.94812 10.4168 0.958985 10.8139C0.96985 11.2109 1.10119 11.5952 1.33558 11.9158C1.56997 12.2364 1.89633 12.4781 2.27132 12.6089L5.74528 13.8171L7.68159 20.2204C7.70791 20.3059 7.74609 20.3873 7.79504 20.4623C7.80247 20.4738 7.81294 20.4823 7.82084 20.4935C7.87738 20.5724 7.94572 20.6421 8.02346 20.7003C8.04557 20.7171 8.06674 20.7329 8.09037 20.7479C8.18135 20.8082 8.2821 20.8524 8.38815 20.8783L8.3995 20.8793L8.40593 20.882C8.46969 20.895 8.53459 20.9016 8.59966 20.9017C8.60591 20.9017 8.61147 20.8987 8.61767 20.8986C8.71587 20.8969 8.8132 20.8799 8.90622 20.8484C8.92786 20.8411 8.9464 20.8287 8.9674 20.8198C9.03676 20.7911 9.10247 20.7542 9.16317 20.7101C9.21178 20.6691 9.26041 20.6281 9.30905 20.5872L11.8986 17.7281L15.761 20.7201C16.101 20.9848 16.5195 21.1287 16.9505 21.1291C17.402 21.1285 17.8396 20.9727 18.19 20.6878C18.5403 20.4029 18.782 20.0063 18.8746 19.5643L22.0014 4.2151C22.0722 3.86963 22.0478 3.51141 21.9308 3.17874C21.8137 2.84608 21.6085 2.55149 21.3369 2.3265ZM8.97965 14.1222C8.84677 14.2546 8.75594 14.4232 8.71855 14.607L8.42193 16.0484L7.67054 13.5633L11.5664 11.5346L8.97965 14.1222ZM16.9355 19.2049L12.3713 15.6692C12.1803 15.5216 11.9408 15.4515 11.7004 15.4726C11.46 15.4938 11.2364 15.6047 11.0741 15.7834L10.2448 16.6988L10.5379 15.2743L17.3258 8.48639C17.4878 8.32459 17.5865 8.11011 17.604 7.8818C17.6215 7.65349 17.5567 7.42646 17.4213 7.24182C17.2859 7.05718 17.0888 6.92715 16.8658 6.87527C16.6428 6.8234 16.4085 6.85312 16.2055 6.95905L6.46379 12.0311L2.89461 10.725L20.124 3.8323L16.9355 19.2049Z" fill="#FCFCFC"/>
</svg>
