<svg width="86" height="72" viewBox="0 0 86 72" fill="none" xmlns="http://www.w3.org/2000/svg">
<path d="M48.0983 38.1708C48.9217 36.8185 49.3571 35.2657 49.357 33.6823C49.357 28.8859 45.476 25.0019 40.6785 25C35.8854 25.0014 32 28.8859 32 33.6814C32 38.4726 35.8859 42.3566 40.6814 42.3566C42.3266 42.3566 43.8594 41.8917 45.1694 41.0973L51.0726 47L54 44.0711L48.0983 38.1708ZM40.6804 39.0513C37.7143 39.0441 35.3163 36.6471 35.311 33.6871C35.313 32.2636 35.8793 30.8989 36.8858 29.8923C37.8923 28.8856 39.2569 28.319 40.6804 28.3167C43.6452 28.3244 46.0441 30.7214 46.0503 33.6871C46.0441 36.6437 43.6442 39.0441 40.6804 39.0513Z" fill="#1C50EA"/>
</svg>
